<svg class="animated" id="freepik_stories-dropshipping-model" xmlns="http://www.w3.org/2000/svg" viewBox="0 0 500 500" version="1.1" xmlns:xlink="http://www.w3.org/1999/xlink" xmlns:svgjs="http://svgjs.com/svgjs">
<style>svg#freepik_stories-dropshipping-model:not(.animated) .animable {
	opacity: 0
}

svg#freepik_stories-dropshipping-model.animated #freepik--background-complete--inject-2 {
	animation: 1s 1 forwards cubic-bezier(.36, -.01, .5, 1.38) zoomIn;
	animation-delay: 0s
}

svg#freepik_stories-dropshipping-model.animated #freepik--Shadow--inject-2 {
	animation: 1s 1 forwards cubic-bezier(.36, -.01, .5, 1.38) zoomIn;
	animation-delay: 0s
}

svg#freepik_stories-dropshipping-model.animated #freepik--Arrows--inject-2 {
	animation: 1s 1 forwards cubic-bezier(.36, -.01, .5, 1.38) zoomOut, 6s Infinite linear spin;
	animation-delay: 0s, 2s
}

svg#freepik_stories-dropshipping-model.animated #freepik--Factory--inject-2 {
	animation: 1s 1 forwards cubic-bezier(.36, -.01, .5, 1.38) zoomOut;
	animation-delay: 0s
}

svg#freepik_stories-dropshipping-model.animated #freepik--Coins--inject-2 {
	animation: 1s 1 forwards cubic-bezier(.36, -.01, .5, 1.38) slideLeft, 1.5s Infinite linear wind;
	animation-delay: 0s, 1s
}

svg#freepik_stories-dropshipping-model.animated #freepik--Graphic--inject-2 {
	animation: 1s 1 forwards cubic-bezier(.36, -.01, .5, 1.38) slideUp, 1.5s Infinite linear floating;
	animation-delay: 0s, 1s
}

svg#freepik_stories-dropshipping-model.animated #freepik--Store--inject-2 {
	animation: 1s 1 forwards cubic-bezier(.36, -.01, .5, 1.38) slideUp;
	animation-delay: 0s
}

svg#freepik_stories-dropshipping-model.animated #freepik--Box--inject-2 {
	animation: 1s 1 forwards cubic-bezier(.36, -.01, .5, 1.38) zoomOut;
	animation-delay: 0s
}

svg#freepik_stories-dropshipping-model.animated #freepik--Character--inject-2 {
	animation: 1s 1 forwards cubic-bezier(.36, -.01, .5, 1.38) fadeIn;
	animation-delay: 0s
}

@keyframes zoomIn {
	0% {
		opacity: 0;
		transform: scale(.5)
	}

	100% {
		opacity: 1;
		transform: scale(1)
	}
}

@keyframes zoomOut {
	0% {
		opacity: 0;
		transform: scale(1.5)
	}

	100% {
		opacity: 1;
		transform: scale(1)
	}
}

@keyframes spin {
	from {
		transform: rotate(0)
	}

	to {
		transform: rotate(360deg)
	}
}

@keyframes slideLeft {
	0% {
		opacity: 0;
		transform: translateX(-30px)
	}

	100% {
		opacity: 1;
		transform: translateX(0)
	}
}

@keyframes wind {
	0% {
		transform: rotate(0deg)
	}

	25% {
		transform: rotate(1deg)
	}

	75% {
		transform: rotate(-1deg)
	}
}

@keyframes slideUp {
	0% {
		opacity: 0;
		transform: translateY(30px)
	}

	100% {
		opacity: 1;
		transform: inherit
	}
}

@keyframes floating {
	0% {
		opacity: 1;
		transform: translateY(0px)
	}

	50% {
		transform: translateY(-10px)
	}

	100% {
		opacity: 1;
		transform: translateY(0px)
	}
}

@keyframes fadeIn {
	0% {
		opacity: 0
	}

	100% {
		opacity: 1
	}
}

</style>
<g id="freepik--background-complete--inject-2" class="animable" style="transform-origin: 250px 228.23px;"><rect x="416.78" y="398.49" width="33.12" height="0.25" style="fill: rgb(235, 235, 235); transform-origin: 433.34px 398.615px;" id="eliqp5g0txva" class="animable"></rect><rect x="322.53" y="401.21" width="8.69" height="0.25" style="fill: rgb(235, 235, 235); transform-origin: 326.875px 401.335px;" id="el7bs3blg3mne" class="animable"></rect><rect x="396.59" y="389.21" width="19.19" height="0.25" style="fill: rgb(235, 235, 235); transform-origin: 406.185px 389.335px;" id="elm1mtpo3732b" class="animable"></rect><rect x="52.46" y="390.89" width="43.19" height="0.25" style="fill: rgb(235, 235, 235); transform-origin: 74.055px 391.015px;" id="el0a6htbkh9sht" class="animable"></rect><rect x="104.56" y="390.89" width="6.33" height="0.25" style="fill: rgb(235, 235, 235); transform-origin: 107.725px 391.015px;" id="el32c9e9zpzev" class="animable"></rect><rect x="131.47" y="395.11" width="93.68" height="0.25" style="fill: rgb(235, 235, 235); transform-origin: 178.31px 395.235px;" id="el7wjlrimjz0m" class="animable"></rect><path d="M238.4,337.8H45.3a5.71,5.71,0,0,1-5.71-5.71V60.66A5.71,5.71,0,0,1,45.3,55H238.4a5.71,5.71,0,0,1,5.71,5.71V332.09A5.71,5.71,0,0,1,238.4,337.8ZM45.3,55.2a5.47,5.47,0,0,0-5.46,5.46V332.09a5.47,5.47,0,0,0,5.46,5.46H238.4a5.47,5.47,0,0,0,5.46-5.46V60.66a5.47,5.47,0,0,0-5.46-5.46Z" style="fill: rgb(235, 235, 235); transform-origin: 141.85px 196.4px;" id="elm5pjklzviw" class="animable"></path><path d="M454.7,337.8H261.6a5.71,5.71,0,0,1-5.71-5.71V60.66A5.71,5.71,0,0,1,261.6,55H454.7a5.71,5.71,0,0,1,5.71,5.71V332.09A5.71,5.71,0,0,1,454.7,337.8ZM261.6,55.2a5.47,5.47,0,0,0-5.46,5.46V332.09a5.47,5.47,0,0,0,5.46,5.46H454.7a5.47,5.47,0,0,0,5.46-5.46V60.66a5.47,5.47,0,0,0-5.46-5.46Z" style="fill: rgb(235, 235, 235); transform-origin: 358.15px 196.4px;" id="el9k6mvtm5xvr" class="animable"></path><rect y="382.4" width="500" height="0.25" style="fill: rgb(235, 235, 235); transform-origin: 250px 382.525px;" id="eltevb6wppzp" class="animable"></rect><rect x="393.4" y="246.66" width="18.81" height="18.81" style="fill: rgb(245, 245, 245); transform-origin: 402.805px 256.065px;" id="eloxn5xsn8n3b" class="animable"></rect><rect x="412.22" y="246.66" width="11.56" height="18.81" style="fill: rgb(235, 235, 235); transform-origin: 418px 256.065px;" id="el0lff00vji81h" class="animable"></rect><polygon points="416.84 246.66 416.84 253.78 417.14 253.5 417.67 253.84 418.13 253.5 418.72 253.84 419.35 253.5 419.75 253.84 420.21 253.59 420.21 246.66 416.84 246.66" style="fill: rgb(224, 224, 224); transform-origin: 418.525px 250.25px;" id="elbmuvu5hj62l" class="animable"></polygon><g id="elzyi3qrzjsy"><polygon points="416.84 246.66 416.84 253.78 417.14 253.5 417.67 253.84 418.13 253.5 418.72 253.84 419.35 253.5 419.75 253.84 420.21 253.59 420.21 246.66 416.84 246.66" style="fill: rgb(224, 224, 224); opacity: 0.7; transform-origin: 418.525px 250.25px;" class="animable" id="elgglm1lk5exw"></polygon></g><rect x="388.45" y="268.94" width="24.61" height="24.61" style="fill: rgb(245, 245, 245); transform-origin: 400.755px 281.245px;" id="elq0ugfhcwzh" class="animable"></rect><rect x="413.06" y="268.94" width="15.12" height="24.61" style="fill: rgb(230, 230, 230); transform-origin: 420.62px 281.245px;" id="eli1kg1pchvr" class="animable"></rect><polygon points="408.36 275.86 383.75 275.86 388.45 268.94 413.06 268.94 408.36 275.86" style="fill: rgb(230, 230, 230); transform-origin: 398.405px 272.4px;" id="elchay1bhydj" class="animable"></polygon><polygon points="417.52 275.86 432.63 275.86 428.18 268.94 413.06 268.94 417.52 275.86" style="fill: rgb(245, 245, 245); transform-origin: 422.845px 272.4px;" id="el9y6zb0fc2zc" class="animable"></polygon><circle cx="101.52" cy="257.86" r="13.64" style="fill: rgb(224, 224, 224); transform-origin: 101.52px 257.86px;" id="eljbj16x8nyq" class="animable"></circle><circle cx="99.4" cy="257.86" r="13.64" style="fill: rgb(235, 235, 235); transform-origin: 99.4px 257.86px;" id="el8mtix9x5l77" class="animable"></circle><g id="eliexi2fe13d"><circle cx="99.4" cy="257.86" r="10.49" style="fill: rgb(255, 255, 255); opacity: 0.2; transform-origin: 99.4px 257.86px; transform: rotate(-45deg);" class="animable" id="elpbytmscl2nq"></circle></g><path d="M90.51,257.86a10.47,10.47,0,0,1,9.69-10.44c-.27,0-.53,0-.8,0a10.49,10.49,0,0,0,0,21c.27,0,.53,0,.8,0A10.48,10.48,0,0,1,90.51,257.86Z" style="fill: rgb(224, 224, 224); transform-origin: 94.55px 257.92px;" id="elja0gatepfi" class="animable"></path><path d="M103.27,261.66a4.61,4.61,0,0,1-2.7,1.13v1.74H99v-1.7a8.39,8.39,0,0,1-2.2-.4,5.72,5.72,0,0,1-1.68-.84l.86-1.91a5.71,5.71,0,0,0,1.39.74,6.53,6.53,0,0,0,1.63.37v-2.6a11.81,11.81,0,0,1-1.87-.6,3.26,3.26,0,0,1-1.28-.95,2.59,2.59,0,0,1-.51-1.68,3,3,0,0,1,.94-2.22A4.46,4.46,0,0,1,99,251.61v-1.73h1.56v1.7a6.85,6.85,0,0,1,3.17.95l-.78,1.92a6.12,6.12,0,0,0-2.39-.81v2.65a10.83,10.83,0,0,1,1.85.56,3.43,3.43,0,0,1,1.27.95,2.6,2.6,0,0,1,.51,1.67A3,3,0,0,1,103.27,261.66Zm-5.11-6.19a2.4,2.4,0,0,0,.85.43v-2.22a1.71,1.71,0,0,0-.87.45,1,1,0,0,0-.28.71A.77.77,0,0,0,98.16,255.47Zm3.25,4.85a.89.89,0,0,0,.28-.67.81.81,0,0,0-.28-.64,2.62,2.62,0,0,0-.84-.43v2.15A1.58,1.58,0,0,0,101.41,260.32Z" style="fill: rgb(224, 224, 224); transform-origin: 99.6564px 257.205px;" id="elmavpwsiuier" class="animable"></path><circle cx="279.71" cy="134.81" r="13.64" style="fill: rgb(224, 224, 224); transform-origin: 279.71px 134.81px;" id="elx4w2vo99iy" class="animable"></circle><circle cx="277.58" cy="134.81" r="13.64" style="fill: rgb(235, 235, 235); transform-origin: 277.58px 134.81px;" id="elyup8c13sndc" class="animable"></circle><g id="elfh2hdfda3du"><circle cx="277.58" cy="134.81" r="10.49" style="fill: rgb(255, 255, 255); opacity: 0.2; transform-origin: 277.58px 134.81px; transform: rotate(-45deg);" class="animable" id="elhqnxax8c8jc"></circle></g><path d="M268.69,134.81a10.49,10.49,0,0,1,9.69-10.45c-.26,0-.53,0-.8,0a10.49,10.49,0,0,0,0,21c.27,0,.54,0,.8,0A10.47,10.47,0,0,1,268.69,134.81Z" style="fill: rgb(224, 224, 224); transform-origin: 272.73px 134.86px;" id="elzw8fdik3p1" class="animable"></path><path d="M281.45,138.6a4.49,4.49,0,0,1-2.7,1.13v1.75H277.2v-1.7a8.32,8.32,0,0,1-2.2-.41,5.67,5.67,0,0,1-1.69-.84l.86-1.9a5.88,5.88,0,0,0,1.39.73,6.52,6.52,0,0,0,1.64.38v-2.61a11.06,11.06,0,0,1-1.88-.59,3.35,3.35,0,0,1-1.27-1,2.53,2.53,0,0,1-.52-1.67,3,3,0,0,1,1-2.23,4.52,4.52,0,0,1,2.72-1.13v-1.73h1.55v1.7a6.93,6.93,0,0,1,3.17.95l-.78,1.92a6.12,6.12,0,0,0-2.39-.81v2.65a11.73,11.73,0,0,1,1.85.57,3.16,3.16,0,0,1,1.27.95,2.55,2.55,0,0,1,.52,1.66A3,3,0,0,1,281.45,138.6Zm-5.11-6.18a2.3,2.3,0,0,0,.86.42v-2.21a1.7,1.7,0,0,0-.88.44,1,1,0,0,0-.28.71A.8.8,0,0,0,276.34,132.42Zm3.26,4.85a1,1,0,0,0,.28-.67.82.82,0,0,0-.29-.64,2.51,2.51,0,0,0-.84-.44v2.15A1.73,1.73,0,0,0,279.6,137.27Z" style="fill: rgb(224, 224, 224); transform-origin: 277.876px 134.13px;" id="ele4epch651pe" class="animable"></path><circle cx="183.9" cy="273.04" r="9.81" style="fill: rgb(224, 224, 224); transform-origin: 183.9px 273.04px;" id="eltrmg2ulpxh" class="animable"></circle><circle cx="182.37" cy="273.04" r="9.81" style="fill: rgb(245, 245, 245); transform-origin: 182.37px 273.04px;" id="elncjaukvxlw" class="animable"></circle><g id="elc4byts6k0wk"><circle cx="182.37" cy="273.04" r="7.54" style="fill: rgb(255, 255, 255); opacity: 0.2; transform-origin: 182.37px 273.04px;" class="animable" id="el559nlja7edk"></circle></g><path d="M176,273a7.55,7.55,0,0,1,7-7.52c-.19,0-.38,0-.58,0a7.55,7.55,0,0,0,0,15.09,5.49,5.49,0,0,0,.58,0A7.54,7.54,0,0,1,176,273Z" style="fill: rgb(224, 224, 224); transform-origin: 179.072px 273.029px;" id="eliuni3jnlpz" class="animable"></path><path d="M185.16,275.77a3.37,3.37,0,0,1-1.95.81v1.26h-1.12v-1.23a5.89,5.89,0,0,1-1.58-.29,4.14,4.14,0,0,1-1.21-.6l.62-1.37a4.1,4.1,0,0,0,1,.53,4.31,4.31,0,0,0,1.17.26v-1.87a8.16,8.16,0,0,1-1.34-.43,2.24,2.24,0,0,1-.92-.68,1.86,1.86,0,0,1-.37-1.21,2.15,2.15,0,0,1,.68-1.6,3.25,3.25,0,0,1,2-.81v-1.25h1.12v1.23a4.91,4.91,0,0,1,2.28.68l-.56,1.38a4.34,4.34,0,0,0-1.72-.58v1.9a8.16,8.16,0,0,1,1.33.41,2.33,2.33,0,0,1,.92.69,1.86,1.86,0,0,1,.37,1.19A2.17,2.17,0,0,1,185.16,275.77Zm-3.68-4.45a1.65,1.65,0,0,0,.61.3V270a1.17,1.17,0,0,0-.62.32.73.73,0,0,0-.21.51A.55.55,0,0,0,181.48,271.32Zm2.34,3.49a.7.7,0,0,0,.2-.49.57.57,0,0,0-.21-.45,1.66,1.66,0,0,0-.6-.32v1.55A1.24,1.24,0,0,0,183.82,274.81Z" style="fill: rgb(224, 224, 224); transform-origin: 182.591px 272.565px;" id="elo51ist8nrnq" class="animable"></path><g id="el6bsze1ppi4q"><circle cx="209.68" cy="94.06" r="9.81" style="fill: rgb(224, 224, 224); transform-origin: 209.68px 94.06px; transform: rotate(-45deg);" class="animable" id="elsil5wlkjdx8"></circle></g><g id="elv1ste4c1m9b"><circle cx="208.15" cy="94.06" r="9.81" style="fill: rgb(245, 245, 245); transform-origin: 208.15px 94.06px; transform: rotate(-45deg);" class="animable" id="ely3994zjjjjg"></circle></g><g id="elfyu35l1pewo"><circle cx="208.15" cy="94.06" r="7.54" style="fill: rgb(255, 255, 255); opacity: 0.2; transform-origin: 208.15px 94.06px;" class="animable" id="elqqbzkou0ra"></circle></g><path d="M201.75,94.06a7.54,7.54,0,0,1,7-7.51,5.44,5.44,0,0,0-.57,0,7.55,7.55,0,0,0,0,15.09c.19,0,.38,0,.57,0A7.56,7.56,0,0,1,201.75,94.06Z" style="fill: rgb(224, 224, 224); transform-origin: 204.827px 94.0913px;" id="elshz2rz1sdp" class="animable"></path><path d="M210.93,96.79a3.22,3.22,0,0,1-1.94.81v1.26h-1.12V97.64a6.31,6.31,0,0,1-1.58-.29,4.14,4.14,0,0,1-1.21-.61l.62-1.37a3.87,3.87,0,0,0,1,.53,4.92,4.92,0,0,0,1.18.27V94.29a7.35,7.35,0,0,1-1.34-.42,2.36,2.36,0,0,1-.92-.69,1.84,1.84,0,0,1-.37-1.21,2.14,2.14,0,0,1,.67-1.59,3.25,3.25,0,0,1,2-.82V88.32H209v1.22a4.91,4.91,0,0,1,2.28.68l-.56,1.38A4.5,4.5,0,0,0,209,91v1.91a7.28,7.28,0,0,1,1.33.41,2.38,2.38,0,0,1,.92.68,1.86,1.86,0,0,1,.37,1.19A2.13,2.13,0,0,1,210.93,96.79Zm-3.68-4.45a2,2,0,0,0,.62.31v-1.6a1.33,1.33,0,0,0-.63.32.76.76,0,0,0-.2.51A.57.57,0,0,0,207.25,92.34Zm2.35,3.49a.66.66,0,0,0,.2-.48.57.57,0,0,0-.21-.46,1.68,1.68,0,0,0-.6-.31v1.54A1.2,1.2,0,0,0,209.6,95.83Z" style="fill: rgb(224, 224, 224); transform-origin: 208.351px 93.59px;" id="elv57nl6h4fss" class="animable"></path><path d="M123.38,320.27,109.7,316l15.27.81c-3.35-5.83-4.84-8.7-7.5-14.28,3.82,4.35,5.81,6.56,10,11a125.22,125.22,0,0,1,4.75-19.08,82.32,82.32,0,0,0-1.3,16.8l.28.06A135.88,135.88,0,0,1,145.9,297a109.15,109.15,0,0,0-13.32,17.53q8.53-3.22,17.19-6.13c-5.78,3.16-11.43,6.42-17.07,9.84l14.14,4.51-14.62-.89c3.08,3.61,4.68,5.43,8,9.08-4.11-2.71-6.14-4.06-10.15-6.76a94.07,94.07,0,0,0,2,11.17c-2-4.56-2.88-6.83-4.42-11.3-2.87,13.73-2.12,27,.65,40.69l-3.44-.62a106.84,106.84,0,0,1,1.61-40.28c-3.46,3.57-5.08,5.38-8.08,9a93.16,93.16,0,0,1,5.81-9.76c-4.93,1.08-7.36,1.63-12.19,2.73C116.44,323.59,118.71,322.47,123.38,320.27Z" style="fill: rgb(235, 235, 235); transform-origin: 129.735px 329.595px;" id="el4m8r1mmgyq5" class="animable"></path><path d="M118.53,325l12.64-6.7L116.32,322c2.2-6.35,3.14-9.45,4.7-15.43-2.94,5-4.48,7.53-7.75,12.71A125.49,125.49,0,0,0,105,301.37a82.52,82.52,0,0,1,4.42,16.26l-.27.1a136.84,136.84,0,0,0-17.13-11.38,110,110,0,0,1,16.35,14.74q-9-1.57-18-2.81c6.27,2,12.43,4.17,18.61,6.48l-13.06,7.07,14.2-3.6c-2.35,4.12-3.58,6.2-6.16,10.41,3.54-3.43,5.28-5.14,8.71-8.53a92.89,92.89,0,0,1,.12,11.34c1.11-4.85,1.55-7.24,2.23-11.93,5.38,13,7.14,26.17,7,40.1l3.26-1.25a107,107,0,0,0-9.1-39.28c4.07,2.87,6,4.35,9.63,7.38a94.12,94.12,0,0,0-7.53-8.5c5,.14,7.54.22,12.48.4C126,327,123.52,326.31,118.53,325Z" style="fill: rgb(240, 240, 240); transform-origin: 110.77px 335.495px;" id="elwlv8hv5cam" class="animable"></path><path d="M130.89,332.53l-9.21-4.88,10.82,2.65c-1.61-4.62-2.29-6.88-3.43-11.24,2.14,3.63,3.27,5.48,5.65,9.26a91.3,91.3,0,0,1,6-13,60.23,60.23,0,0,0-3.22,11.85l.2.08a99.15,99.15,0,0,1,12.49-8.3,80.07,80.07,0,0,0-11.93,10.75q6.56-1.15,13.15-2.05c-4.57,1.48-9.06,3-13.56,4.72l9.51,5.15L137,334.88c1.71,3,2.61,4.52,4.49,7.59-2.57-2.5-3.84-3.75-6.35-6.22a66.87,66.87,0,0,0-.08,8.27c-.81-3.54-1.14-5.28-1.63-8.7-3.92,9.45-5.2,19.08-5.07,29.23l-2.38-.91a77.64,77.64,0,0,1,6.64-28.63c-3,2.09-4.38,3.17-7,5.38a68.65,68.65,0,0,1,5.49-6.2c-3.67.11-5.49.17-9.1.3C125.47,334,127.25,333.48,130.89,332.53Z" style="fill: rgb(245, 245, 245); transform-origin: 136.545px 340.185px;" id="elnkkvgviabt" class="animable"></path><polygon points="135.1 382.38 112.89 382.38 110.71 346.99 137.28 346.99 135.1 382.38" style="fill: rgb(235, 235, 235); transform-origin: 123.995px 364.685px;" id="eljru29pfio9" class="animable"></polygon><polygon points="139 348.81 108.77 348.81 108.23 344.1 139.54 344.1 139 348.81" style="fill: rgb(245, 245, 245); transform-origin: 123.885px 346.455px;" id="el7sgszl2qjgv" class="animable"></polygon><g id="ellp89z01ouag"><rect x="374.28" y="306.93" width="41.46" height="75.35" style="fill: rgb(240, 240, 240); transform-origin: 395.01px 344.605px; transform: rotate(180deg);" class="animable" id="el0ibjfwy42u0i"></rect></g><g id="elzmxkd0gojtn"><rect x="362.55" y="306.93" width="11.73" height="75.35" style="fill: rgb(230, 230, 230); transform-origin: 368.415px 344.605px; transform: rotate(180deg);" class="animable" id="elrvjn09w8abl"></rect></g><g id="elw0pr9dlbcal"><rect x="378.27" y="313" width="33.16" height="19.87" style="fill: rgb(250, 250, 250); transform-origin: 394.85px 322.935px; transform: rotate(180deg);" class="animable" id="elydkk8cgd07h"></rect></g><g id="elqa18688z6u9"><rect x="378.27" y="335.04" width="33.16" height="19.87" style="fill: rgb(250, 250, 250); transform-origin: 394.85px 344.975px; transform: rotate(180deg);" class="animable" id="elj6zb66mvmm9"></rect></g><g id="elmoxbptre3cn"><rect x="378.27" y="357.08" width="33.16" height="19.87" style="fill: rgb(250, 250, 250); transform-origin: 394.85px 367.015px; transform: rotate(180deg);" class="animable" id="elvxgniy5kvnh"></rect></g><path d="M393.17,317.42a2.21,2.21,0,1,0,2.21-2.21A2.21,2.21,0,0,0,393.17,317.42Z" style="fill: rgb(224, 224, 224); transform-origin: 395.38px 317.42px;" id="eljdx7or5u7zn" class="animable"></path><path d="M394.32,317.42a2.21,2.21,0,1,0,2.21-2.21A2.21,2.21,0,0,0,394.32,317.42Z" style="fill: rgb(240, 240, 240); transform-origin: 396.53px 317.42px;" id="elmema7951h7c" class="animable"></path><path d="M393.17,339.38a2.21,2.21,0,1,0,2.21-2.21A2.21,2.21,0,0,0,393.17,339.38Z" style="fill: rgb(224, 224, 224); transform-origin: 395.38px 339.38px;" id="el6c0iqp92h3h" class="animable"></path><path d="M394.32,339.38a2.21,2.21,0,1,0,2.21-2.21A2.21,2.21,0,0,0,394.32,339.38Z" style="fill: rgb(240, 240, 240); transform-origin: 396.53px 339.38px;" id="el0hozeh87k11q" class="animable"></path><path d="M393.17,361.33a2.21,2.21,0,1,0,2.21-2.21A2.21,2.21,0,0,0,393.17,361.33Z" style="fill: rgb(224, 224, 224); transform-origin: 395.38px 361.33px;" id="el7jzd6p785ns" class="animable"></path><path d="M394.32,361.33a2.21,2.21,0,1,0,2.21-2.21A2.21,2.21,0,0,0,394.32,361.33Z" style="fill: rgb(240, 240, 240); transform-origin: 396.53px 361.33px;" id="elolsa3hj55rr" class="animable"></path><path d="M159.22,115.77c-2.84,1.16-12.27-.24-12.27-.24l-1,.43a20.16,20.16,0,0,1-17.4-.78h0s-7.75.31-10.26-.2c-3.83-.77-9.54-3.8-8.11-13.36s15.77-1.29,15.77-1.29-4.14-13.45,9.83-9.39a20.79,20.79,0,0,1,15.08,17.34S172.62,110.28,159.22,115.77Z" style="fill: rgb(245, 245, 245); transform-origin: 136.768px 103.871px;" id="eltuysdcazhop" class="animable"></path><path d="M121.23,128.21c-2,.8-8.49-.16-8.49-.16l-.7.3a13.94,13.94,0,0,1-12-.55h0a49.93,49.93,0,0,1-7.1-.14c-2.65-.53-6.6-2.63-5.61-9.24s10.91-.89,10.91-.89-2.86-9.31,6.8-6.5a14.38,14.38,0,0,1,10.44,12S130.51,124.41,121.23,128.21Z" style="fill: rgb(240, 240, 240); transform-origin: 105.715px 119.975px;" id="elqcpbhxdn64" class="animable"></path><path d="M265.27,155.33c-2.84,1.16-12.27-.23-12.27-.23l-1,.43a20.16,20.16,0,0,1-17.4-.79h0s-7.75.31-10.26-.2c-3.83-.77-9.53-3.8-8.11-13.35s15.77-1.3,15.77-1.3-4.14-13.45,9.83-9.38a20.77,20.77,0,0,1,15.08,17.33S278.67,149.84,265.27,155.33Z" style="fill: rgb(245, 245, 245); transform-origin: 242.819px 143.437px;" id="el70indxe4cu9" class="animable"></path><path d="M387.53,115.69a16.52,16.52,0,0,0-12-13.77c-5.45-1.59-7.43.19-8,2.4a26.83,26.83,0,0,0-13.78-8.94C335.58,90.1,341,107.58,341,107.58s-18.65-10.74-20.5,1.69S326,125.63,331,126.63c3.27.66,13.34.26,13.34.26a26.18,26.18,0,0,0,22.62,1l1.33-.56s12.26,1.82,15.95.31c5.84-2.4,6.54-4.28,4.89-5.72a14.16,14.16,0,0,0,5.05-.3C404.83,117.28,387.53,115.69,387.53,115.69Z" style="fill: rgb(245, 245, 245); transform-origin: 358.926px 112.187px;" id="elx8bvt6rdwbj" class="animable"></path></g><g id="freepik--Shadow--inject-2" class="animable" style="transform-origin: 245.18px 412.39px;"><ellipse id="freepik--path--inject-2" cx="245.18" cy="412.39" rx="193.89" ry="11.32" style="fill: rgb(245, 245, 245); transform-origin: 245.18px 412.39px;" class="animable"></ellipse></g><g id="freepik--Arrows--inject-2" class="animable" style="transform-origin: 247.74px 212.763px;"><path d="M337.51,148a114.39,114.39,0,0,0-170.42-5.14,1.5,1.5,0,0,1-2.11.08h0a1.51,1.51,0,0,1-.07-2.14,117.39,117.39,0,0,1,174.89,5.26Z" style="fill: rgb(38, 50, 56); transform-origin: 252.15px 126.139px;" id="ellrpkhvj3y" class="animable"></path><path d="M340.16,148.19h-9.34a1.5,1.5,0,0,1-1.5-1.5h0a1.5,1.5,0,0,1,1.5-1.5h6.34v-6.34a1.5,1.5,0,0,1,1.5-1.5h0a1.51,1.51,0,0,1,1.5,1.5Z" style="fill: rgb(38, 50, 56); transform-origin: 334.74px 142.77px;" id="el7qhc45til6n" class="animable"></path><path d="M316,318.73l-1.69-2.48a114.41,114.41,0,0,0,48.93-78.52,1.51,1.51,0,0,1,1.67-1.29h0a1.52,1.52,0,0,1,1.31,1.7A117.44,117.44,0,0,1,316,318.73Z" style="fill: rgb(38, 50, 56); transform-origin: 340.271px 277.58px;" id="el6v6880fw63e" class="animable"></path><path d="M321.37,321.21l-9.09-2.1,2.1-9.1a1.49,1.49,0,0,1,1.79-1.12h0a1.5,1.5,0,0,1,1.13,1.8l-1.43,6.17,6.18,1.42a1.5,1.5,0,0,1,1.12,1.8h0A1.51,1.51,0,0,1,321.37,321.21Z" style="fill: rgb(38, 50, 56); transform-origin: 317.744px 315.049px;" id="el2l79gakao59" class="animable"></path><path d="M163.14,300.62a116.8,116.8,0,0,1-28.89-59.35l2.95-.5a113.75,113.75,0,0,0,28.16,57.83,1.51,1.51,0,0,1-.08,2.11h0A1.51,1.51,0,0,1,163.14,300.62Z" style="fill: rgb(38, 50, 56); transform-origin: 150.001px 270.941px;" id="elfgjbrmy38zk" class="animable"></path><path d="M129.87,246.34h0a1.51,1.51,0,0,1-.34-2.1l5.49-7.55,7.55,5.49a1.49,1.49,0,0,1,.33,2.09h0a1.49,1.49,0,0,1-2.09.33l-5.13-3.72L132,246A1.5,1.5,0,0,1,129.87,246.34Z" style="fill: rgb(38, 50, 56); transform-origin: 136.218px 241.665px;" id="elcixh60oxjue" class="animable"></path></g><g id="freepik--Factory--inject-2" class="animable" style="transform-origin: 356.75px 187.44px;"><polygon points="395.76 176.44 387.76 176.44 388.76 143.44 394.76 143.44 395.76 176.44" style="fill: rgb(38, 50, 56); transform-origin: 391.76px 159.94px;" id="elnpyiz7z16gg" class="animable"></polygon><g id="elwjz0bmd26zr"><polygon points="395.76 176.44 387.76 176.44 388.76 143.44 394.76 143.44 395.76 176.44" style="fill: rgb(255, 255, 255); opacity: 0.7; transform-origin: 391.76px 159.94px;" class="animable" id="el7xp3vkl2twk"></polygon></g><polygon points="395.25 159.69 395.16 156.44 388.37 156.44 388.27 159.69 395.25 159.69" style="fill: #FF974F; transform-origin: 391.76px 158.065px;" id="elb8lbek49fol" class="animable"></polygon><polygon points="388.47 153.19 395.06 153.19 394.96 149.94 388.56 149.94 388.47 153.19" style="fill: #FF974F; transform-origin: 391.765px 151.565px;" id="elcchipv6uikk" class="animable"></polygon><polygon points="395.45 166.19 395.35 162.94 388.17 162.94 388.07 166.19 395.45 166.19" style="fill: #FF974F; transform-origin: 391.76px 164.565px;" id="el90765rfvb8l" class="animable"></polygon><polygon points="395.65 172.69 395.55 169.44 387.97 169.44 387.88 172.69 395.65 172.69" style="fill: #FF974F; transform-origin: 391.765px 171.065px;" id="elp8t4cyqaamk" class="animable"></polygon><polygon points="394.86 146.69 394.76 143.44 388.76 143.44 388.66 146.69 394.86 146.69" style="fill: #FF974F; transform-origin: 391.76px 145.065px;" id="el815i0rcz44q" class="animable"></polygon><polygon points="409.1 176.44 401.1 176.44 402.1 143.44 408.1 143.44 409.1 176.44" style="fill: rgb(38, 50, 56); transform-origin: 405.1px 159.94px;" id="el1871wjpf20c" class="animable"></polygon><g id="eltw14fzybly"><polygon points="409.1 176.44 401.1 176.44 402.1 143.44 408.1 143.44 409.1 176.44" style="fill: rgb(255, 255, 255); opacity: 0.7; transform-origin: 405.1px 159.94px;" class="animable" id="elhxaaylz43q"></polygon></g><polygon points="408.59 159.69 408.49 156.44 401.7 156.44 401.6 159.69 408.59 159.69" style="fill: #FF974F; transform-origin: 405.095px 158.065px;" id="el4121dtfvr0f" class="animable"></polygon><polygon points="401.8 153.19 408.39 153.19 408.29 149.94 401.9 149.94 401.8 153.19" style="fill: #FF974F; transform-origin: 405.095px 151.565px;" id="elznsa6riyr0l" class="animable"></polygon><polygon points="408.78 166.19 408.69 162.94 401.5 162.94 401.41 166.19 408.78 166.19" style="fill: #FF974F; transform-origin: 405.095px 164.565px;" id="elvctfvhtxhz" class="animable"></polygon><polygon points="408.98 172.69 408.88 169.44 401.31 169.44 401.21 172.69 408.98 172.69" style="fill: #FF974F; transform-origin: 405.095px 171.065px;" id="elvfot7wwd3er" class="animable"></polygon><polygon points="408.19 146.69 408.1 143.44 402.1 143.44 402 146.69 408.19 146.69" style="fill: #FF974F; transform-origin: 405.095px 145.065px;" id="elflzj5plnz9s" class="animable"></polygon><polygon points="295.43 231.44 418.1 231.44 418.1 179.53 356.76 149.27 295.43 179.53 295.43 231.44" style="fill: #FF974F; transform-origin: 356.765px 190.355px;" id="elm7zee7jsgmd" class="animable"></polygon><g id="elj7u3rs6ob4"><polygon points="295.43 231.44 418.1 231.44 418.1 179.53 356.76 149.27 295.43 179.53 295.43 231.44" style="fill: rgb(255, 255, 255); opacity: 0.5; transform-origin: 356.765px 190.355px;" class="animable" id="eljev9psc881a"></polygon></g><rect x="332.43" y="190.35" width="48.67" height="41.08" style="fill: rgb(38, 50, 56); transform-origin: 356.765px 210.89px;" id="el478299gvs3i" class="animable"></rect><rect x="332.43" y="190.35" width="8.67" height="41.08" style="fill: rgb(38, 50, 56); transform-origin: 336.765px 210.89px;" id="elbnp41fir29r" class="animable"></rect><g id="elzmjhgsf2t4g"><rect x="332.43" y="190.35" width="8.67" height="41.08" style="fill: rgb(255, 255, 255); opacity: 0.5; transform-origin: 336.765px 210.89px;" class="animable" id="el6vtcsjy81ya"></rect></g><rect x="345.93" y="202.69" width="7.33" height="9.1" style="fill: rgb(38, 50, 56); transform-origin: 349.595px 207.24px;" id="elcuxmh3lngir" class="animable"></rect><g id="el6kl0q7nhsyh"><rect x="345.93" y="202.69" width="7.33" height="9.1" style="fill: rgb(255, 255, 255); opacity: 0.6; transform-origin: 349.595px 207.24px;" class="animable" id="elcw0zghl6f8"></rect></g><rect x="353.26" y="202.69" width="4.5" height="9.1" style="fill: rgb(38, 50, 56); transform-origin: 355.51px 207.24px;" id="elbhei400ws7t" class="animable"></rect><g id="eld3k7bk6psot"><rect x="353.26" y="202.69" width="4.5" height="9.1" style="fill: rgb(255, 255, 255); opacity: 0.4; transform-origin: 355.51px 207.24px;" class="animable" id="el9exn9gprpx"></rect></g><polygon points="355.06 202.69 355.06 205.46 355.18 205.36 355.38 205.49 355.56 205.36 355.8 205.49 356.04 205.36 356.19 205.49 356.37 205.39 356.37 202.69 355.06 202.69" style="fill: #FF974F; transform-origin: 355.715px 204.09px;" id="el5cgyknka8ul" class="animable"></polygon><g id="el73kjmreu6lu"><polygon points="355.06 202.69 355.06 205.46 355.18 205.36 355.38 205.49 355.56 205.36 355.8 205.49 356.04 205.36 356.19 205.49 356.37 205.39 356.37 202.69 355.06 202.69" style="fill: #FF974F; opacity: 0.7; transform-origin: 355.715px 204.09px;" class="animable" id="elzva732jrrfs"></polygon></g><rect x="359.05" y="202.69" width="7.33" height="9.1" style="fill: rgb(38, 50, 56); transform-origin: 362.715px 207.24px;" id="elquee5axj80m" class="animable"></rect><g id="el0d9h3j69libf"><rect x="359.05" y="202.69" width="7.33" height="9.1" style="fill: rgb(255, 255, 255); opacity: 0.6; transform-origin: 362.715px 207.24px;" class="animable" id="el5olre5b5shh"></rect></g><rect x="366.39" y="202.69" width="4.5" height="9.1" style="fill: rgb(38, 50, 56); transform-origin: 368.64px 207.24px;" id="eljhewpwzoov" class="animable"></rect><g id="elio4oojkj7nb"><rect x="366.39" y="202.69" width="4.5" height="9.1" style="fill: rgb(255, 255, 255); opacity: 0.4; transform-origin: 368.64px 207.24px;" class="animable" id="elinasiufzrg"></rect></g><polygon points="368.19 202.69 368.19 205.46 368.3 205.36 368.51 205.49 368.69 205.36 368.92 205.49 369.17 205.36 369.32 205.49 369.5 205.39 369.5 202.69 368.19 202.69" style="fill: #FF974F; transform-origin: 368.845px 204.09px;" id="ela2z0fawp1w" class="animable"></polygon><g id="el7is173hjd7o"><polygon points="368.19 202.69 368.19 205.46 368.3 205.36 368.51 205.49 368.69 205.36 368.92 205.49 369.17 205.36 369.32 205.49 369.5 205.39 369.5 202.69 368.19 202.69" style="fill: #FF974F; opacity: 0.7; transform-origin: 368.845px 204.09px;" class="animable" id="elpcp04pkty1"></polygon></g><path d="M417.25,181.35,356.76,151.5l-60.49,29.85a2,2,0,0,1-2.68-.91h0a2,2,0,0,1,.91-2.68L356.76,147,419,177.76a2,2,0,0,1,.91,2.68h0A2,2,0,0,1,417.25,181.35Z" style="fill: rgb(38, 50, 56); transform-origin: 356.75px 164.278px;" id="el0e2w9p1dnk1" class="animable"></path><g id="eltgnhd5l1qy"><g style="opacity: 0.5; transform-origin: 356.75px 164.278px;" class="animable" id="elu3afurtjr"><path d="M417.25,181.35,356.76,151.5l-60.49,29.85a2,2,0,0,1-2.68-.91h0a2,2,0,0,1,.91-2.68L356.76,147,419,177.76a2,2,0,0,1,.91,2.68h0A2,2,0,0,1,417.25,181.35Z" style="fill: rgb(255, 255, 255); transform-origin: 356.75px 164.278px;" id="elk4wsw8l5f2f" class="animable"></path></g></g><rect x="372.43" y="190.35" width="8.67" height="41.08" style="fill: rgb(38, 50, 56); transform-origin: 376.765px 210.89px;" id="elsbq6olbbsrn" class="animable"></rect><g id="elei9p1ihhgp"><rect x="372.43" y="190.35" width="8.67" height="41.08" style="fill: rgb(255, 255, 255); opacity: 0.5; transform-origin: 376.765px 210.89px;" class="animable" id="elamwwqz6cud"></rect></g><rect x="343.76" y="217.94" width="28.67" height="13.5" style="fill: rgb(38, 50, 56); transform-origin: 358.095px 224.69px;" id="elkymgp9btja" class="animable"></rect><g id="elhp33cxd8e1"><rect x="343.76" y="217.94" width="28.67" height="13.5" style="fill: rgb(255, 255, 255); opacity: 0.4; transform-origin: 358.095px 224.69px;" class="animable" id="elewei4cfjpli"></rect></g><rect x="321.92" y="213.6" width="4.85" height="17.83" style="fill: #FF974F; transform-origin: 324.345px 222.515px;" id="elbajglglakud" class="animable"></rect><path d="M343.76,219.76a4,4,0,0,1,0-8h28.67v8Z" style="fill: #FF974F; transform-origin: 356.095px 215.76px;" id="el8zzneemmcyx" class="animable"></path><path d="M345.93,215.77a2.17,2.17,0,1,1-2.17-2.17A2.17,2.17,0,0,1,345.93,215.77Z" style="fill: rgb(38, 50, 56); transform-origin: 343.76px 215.77px;" id="el371augmttdo" class="animable"></path><rect x="303.76" y="213.6" width="20.93" height="17.83" style="fill: #FF974F; transform-origin: 314.225px 222.515px;" id="elagetae9wjs" class="animable"></rect><g id="ellnwj5uxoarp"><rect x="303.76" y="213.6" width="20.93" height="17.83" style="fill: rgb(255, 255, 255); opacity: 0.3; transform-origin: 314.225px 222.515px;" class="animable" id="el73uc8070g5u"></rect></g><g id="elbsjlvdrq0eb"><polygon points="318.42 221.58 314.89 221.58 316.29 217.21 310.04 223.46 313.57 223.46 312.17 227.83 318.42 221.58" style="fill: rgb(255, 255, 255); opacity: 0.8; transform-origin: 314.23px 222.52px;" class="animable" id="el1vwiiu548ke"></polygon></g></g><g id="freepik--Coins--inject-2" class="animable" style="transform-origin: 200.406px 184.469px;"><circle cx="146.41" cy="271.45" r="20.02" style="fill: #FF974F; transform-origin: 146.41px 271.45px;" id="eljhymxi743p" class="animable"></circle><circle cx="143.3" cy="271.45" r="20.02" style="fill: #FF974F; transform-origin: 143.3px 271.45px;" id="el4y2s3gl42tu" class="animable"></circle><g id="elpb58v9atrn"><circle cx="143.3" cy="271.45" r="20.02" style="fill: rgb(255, 255, 255); opacity: 0.3; transform-origin: 143.3px 271.45px;" class="animable" id="eln6lww4q261f"></circle></g><g id="elpmiqpdnqay"><circle cx="143.3" cy="271.45" r="15.39" style="fill: rgb(255, 255, 255); opacity: 0.2; transform-origin: 143.3px 271.45px;" class="animable" id="el8b7ao19nbs"></circle></g><g id="el7xh5qjrfukf"><path d="M130.24,271.45a15.38,15.38,0,0,1,14.22-15.33c-.38,0-.77-.06-1.16-.06a15.39,15.39,0,1,0,0,30.78c.39,0,.78,0,1.16-.06A15.37,15.37,0,0,1,130.24,271.45Z" style="opacity: 0.1; transform-origin: 136.185px 271.45px;" class="animable" id="el95xx9d93bxj"></path></g><g id="elgc9225cmqaj"><g style="opacity: 0.1; transform-origin: 145.192px 270.47px;" class="animable" id="el2paybbjrybv"><path d="M150.53,277a6.7,6.7,0,0,1-4,1.66v2.56h-2.29v-2.49a12.16,12.16,0,0,1-3.22-.6,8,8,0,0,1-2.47-1.23l1.25-2.79a8.53,8.53,0,0,0,2,1.07,9.5,9.5,0,0,0,2.4.55v-3.82a17.13,17.13,0,0,1-2.74-.87,4.79,4.79,0,0,1-1.88-1.41,3.76,3.76,0,0,1-.75-2.46,4.43,4.43,0,0,1,1.38-3.26,6.55,6.55,0,0,1,4-1.65v-2.54h2.29v2.49a10,10,0,0,1,4.64,1.4l-1.14,2.81a9.05,9.05,0,0,0-3.5-1.19v3.89a16.3,16.3,0,0,1,2.71.83,4.78,4.78,0,0,1,1.86,1.4,3.71,3.71,0,0,1,.76,2.44A4.33,4.33,0,0,1,150.53,277ZM143,268a3.69,3.69,0,0,0,1.26.62v-3.25A2.45,2.45,0,0,0,143,266a1.5,1.5,0,0,0-.41,1A1.18,1.18,0,0,0,143,268Zm4.78,7.11a1.32,1.32,0,0,0,.42-1,1.18,1.18,0,0,0-.43-.94,3.73,3.73,0,0,0-1.22-.64v3.16A2.37,2.37,0,0,0,147.8,275.06Z" id="elm4vcrszxhba" class="animable" style="transform-origin: 145.192px 270.47px;"></path></g></g><path d="M149,277a6.67,6.67,0,0,1-4,1.66v2.56h-2.29v-2.49a12.23,12.23,0,0,1-3.22-.6,8.13,8.13,0,0,1-2.47-1.23l1.26-2.79a8.27,8.27,0,0,0,2,1.07,9.5,9.5,0,0,0,2.4.55v-3.82a17.47,17.47,0,0,1-2.74-.87,4.87,4.87,0,0,1-1.88-1.41,3.76,3.76,0,0,1-.75-2.46,4.43,4.43,0,0,1,1.38-3.26,6.57,6.57,0,0,1,4-1.65v-2.54H145v2.49a10,10,0,0,1,4.65,1.4l-1.15,2.81a9.05,9.05,0,0,0-3.5-1.19v3.89a16.3,16.3,0,0,1,2.71.83,4.88,4.88,0,0,1,1.87,1.4,3.76,3.76,0,0,1,.75,2.44A4.3,4.3,0,0,1,149,277Zm-7.5-9.07a3.73,3.73,0,0,0,1.25.62v-3.25a2.49,2.49,0,0,0-1.28.65,1.5,1.5,0,0,0-.41,1A1.19,1.19,0,0,0,141.47,268Zm4.78,7.11a1.34,1.34,0,0,0,.41-1,1.2,1.2,0,0,0-.42-.94,3.79,3.79,0,0,0-1.23-.64v3.16A2.45,2.45,0,0,0,146.25,275.06Z" style="fill: #FF974F; transform-origin: 143.677px 270.47px;" id="el2ntp9lu9j17" class="animable"></path><g id="el1nzp70md37x"><circle cx="249.22" cy="105.78" r="20.02" style="fill: #FF974F; transform-origin: 249.22px 105.78px; transform: rotate(-45deg);" class="animable" id="elast6rcrdocu"></circle></g><g id="eled314w7ivo"><circle cx="246.1" cy="105.78" r="20.02" style="fill: #FF974F; transform-origin: 246.1px 105.78px; transform: rotate(-76.72deg);" class="animable" id="el2n1ds3pzf0m"></circle></g><g id="elfdnlhssj7ps"><circle cx="246.1" cy="105.78" r="20.02" style="fill: rgb(255, 255, 255); opacity: 0.3; transform-origin: 246.1px 105.78px; transform: rotate(-76.72deg);" class="animable" id="elr5snsoko6f"></circle></g><g id="el64a60of9jtl"><circle cx="246.1" cy="105.78" r="15.39" style="fill: rgb(255, 255, 255); opacity: 0.2; transform-origin: 246.1px 105.78px;" class="animable" id="elgtt69b4w4nd"></circle></g><g id="elzj1h5mi0tlp"><path d="M233.05,105.78a15.38,15.38,0,0,1,14.22-15.33c-.39,0-.77-.06-1.17-.06a15.39,15.39,0,1,0,0,30.78c.4,0,.78,0,1.17-.06A15.38,15.38,0,0,1,233.05,105.78Z" style="opacity: 0.1; transform-origin: 238.99px 105.78px;" class="animable" id="ell80ztqrkjdh"></path></g><g id="elkxedbpk9btm"><g style="opacity: 0.1; transform-origin: 248.017px 104.815px;" class="animable" id="elrosh9mdghkq"><path d="M253.33,111.34a6.58,6.58,0,0,1-4,1.66v2.57h-2.29v-2.5a12.64,12.64,0,0,1-3.23-.59,8.25,8.25,0,0,1-2.47-1.24l1.26-2.79a8.2,8.2,0,0,0,2,1.08,8.9,8.9,0,0,0,2.4.54v-3.82a16.61,16.61,0,0,1-2.75-.87,4.74,4.74,0,0,1-1.87-1.4,3.75,3.75,0,0,1-.76-2.46,4.39,4.39,0,0,1,1.39-3.26,6.55,6.55,0,0,1,4-1.66V94.06h2.29v2.49A10.12,10.12,0,0,1,254,98l-1.14,2.81a9.28,9.28,0,0,0-3.5-1.19v3.89a17.57,17.57,0,0,1,2.71.84,4.75,4.75,0,0,1,1.86,1.39,3.77,3.77,0,0,1,.76,2.44A4.31,4.31,0,0,1,253.33,111.34Zm-7.5-9.07a3.52,3.52,0,0,0,1.26.62V99.64a2.53,2.53,0,0,0-1.28.65,1.48,1.48,0,0,0-.41,1A1.15,1.15,0,0,0,245.83,102.27Zm4.78,7.12a1.33,1.33,0,0,0,.41-1,1.17,1.17,0,0,0-.42-.93,3.55,3.55,0,0,0-1.22-.64V110A2.44,2.44,0,0,0,250.61,109.39Z" id="elk4izf3i48o" class="animable" style="transform-origin: 248.017px 104.815px;"></path></g></g><path d="M251.78,111.34a6.63,6.63,0,0,1-4,1.66v2.57h-2.29v-2.5a12.72,12.72,0,0,1-3.23-.59,8.25,8.25,0,0,1-2.47-1.24l1.26-2.79a8.2,8.2,0,0,0,2,1.08,9.07,9.07,0,0,0,2.4.54v-3.82a16.61,16.61,0,0,1-2.75-.87,4.81,4.81,0,0,1-1.87-1.4,3.8,3.8,0,0,1-.76-2.46,4.42,4.42,0,0,1,1.39-3.26,6.55,6.55,0,0,1,4-1.66V94.06h2.29v2.49a10.12,10.12,0,0,1,4.64,1.4l-1.14,2.81a9.28,9.28,0,0,0-3.5-1.19v3.89a17.23,17.23,0,0,1,2.71.84,4.75,4.75,0,0,1,1.86,1.39,3.71,3.71,0,0,1,.76,2.44A4.33,4.33,0,0,1,251.78,111.34Zm-7.51-9.07a3.52,3.52,0,0,0,1.26.62V99.64a2.53,2.53,0,0,0-1.28.65,1.48,1.48,0,0,0-.41,1A1.15,1.15,0,0,0,244.27,102.27Zm4.78,7.12a1.34,1.34,0,0,0,.42-1,1.18,1.18,0,0,0-.43-.93,3.55,3.55,0,0,0-1.22-.64V110A2.44,2.44,0,0,0,249.05,109.39Z" style="fill: #FF974F; transform-origin: 246.437px 104.815px;" id="elgyp6ydlczal" class="animable"></path></g><g id="freepik--Graphic--inject-2" class="animable" style="transform-origin: 283.89px 267.704px;"><path d="M295.67,251.17H272.11a2,2,0,0,0-2.05,2.05v23.55a2.05,2.05,0,0,0,2.05,2.06h0v4a1.43,1.43,0,0,0,2.43,1l5-5h16.13a2.05,2.05,0,0,0,2.05-2.06V253.22A2,2,0,0,0,295.67,251.17Z" style="fill: #FF974F; transform-origin: 283.89px 267.704px;" id="elgwm3qno07ge" class="animable"></path><g id="el7p2mnbk7eoy"><g style="opacity: 0.9; transform-origin: 281.865px 267.065px;" class="animable" id="el0xx7uo7lgptb"><path d="M290.48,262.68H277.93l-.47-1.74h-4.21v.78h3.61l2.61,9.64h8.64v-.78h-8l-.46-1.69h8.78Zm-11.08,5.43-1.26-4.65h11.25l-1.56,4.65Z" style="fill: rgb(255, 255, 255); transform-origin: 281.865px 266.15px;" id="eljihtt6giqfa" class="animable"></path><circle cx="279.9" cy="272.41" r="0.78" style="fill: rgb(255, 255, 255); transform-origin: 279.9px 272.41px;" id="elfymz4j6rmtu" class="animable"></circle><path d="M288.89,272.41a.78.78,0,1,1-.78-.78A.78.78,0,0,1,288.89,272.41Z" style="fill: rgb(255, 255, 255); transform-origin: 288.11px 272.41px;" id="elrjyith9ggfr" class="animable"></path></g></g><circle cx="287.91" cy="260.16" r="4.59" style="fill: #FF974F; transform-origin: 287.91px 260.16px;" id="elw6jpy73prph" class="animable"></circle><g id="el8p9lj4zsfhy"><circle cx="287.91" cy="260.16" r="4.59" style="opacity: 0.3; transform-origin: 287.91px 260.16px;" class="animable" id="elhhsjc1gfjdf"></circle></g><g id="elxcz6qrhvcrr"><g style="opacity: 0.9; transform-origin: 289.495px 258.194px;" class="animable" id="el1pqnjgklv16"><path d="M287.77,263.13,284,259.22a1.54,1.54,0,0,1,0-2.17h0a1.53,1.53,0,0,1,2.17,0l1.65,1.71,5-5.05a1.53,1.53,0,0,1,2.17,0h0a1.53,1.53,0,0,1,0,2.16Z" style="fill: rgb(255, 255, 255); transform-origin: 289.495px 258.194px;" id="elmlhadi03w7c" class="animable"></path></g></g></g><g id="freepik--Store--inject-2" class="animable" style="transform-origin: 136.1px 191.54px;"><rect x="92.21" y="159.65" width="88.34" height="71.79" style="fill: #FF974F; transform-origin: 136.38px 195.545px;" id="elq2q6yf6een" class="animable"></rect><g id="el6udzsabufyy"><rect x="92.21" y="159.65" width="88.34" height="71.79" style="fill: rgb(255, 255, 255); opacity: 0.5; transform-origin: 136.38px 195.545px;" class="animable" id="ellyhsh0e57m8"></rect></g><rect x="89.16" y="151.64" width="13.49" height="9.56" style="fill: #FF974F; transform-origin: 95.905px 156.42px;" id="elexxoak04im" class="animable"></rect><rect x="115.98" y="151.64" width="13.49" height="9.56" style="fill: #FF974F; transform-origin: 122.725px 156.42px;" id="elvvyxkbw0cdk" class="animable"></rect><rect x="142.81" y="151.64" width="13.49" height="9.56" style="fill: #FF974F; transform-origin: 149.555px 156.42px;" id="elokeidxglgji" class="animable"></rect><rect x="169.64" y="151.64" width="13.49" height="9.56" style="fill: #FF974F; transform-origin: 176.385px 156.42px;" id="el6442fbypstu" class="animable"></rect><g id="ely8oabtf7gx9"><g style="opacity: 0.2; transform-origin: 136.145px 156.42px;" class="animable" id="el69ywgbnrqg8"><rect x="89.16" y="151.64" width="13.49" height="9.56" style="fill: rgb(255, 255, 255); transform-origin: 95.905px 156.42px;" id="elo7qoxuakkwn" class="animable"></rect><rect x="115.98" y="151.64" width="13.49" height="9.56" style="fill: rgb(255, 255, 255); transform-origin: 122.725px 156.42px;" id="elp54vg458e1h" class="animable"></rect><rect x="142.81" y="151.64" width="13.49" height="9.56" style="fill: rgb(255, 255, 255); transform-origin: 149.555px 156.42px;" id="elpl5ilxwcve" class="animable"></rect><rect x="169.64" y="151.64" width="13.49" height="9.56" style="fill: rgb(255, 255, 255); transform-origin: 176.385px 156.42px;" id="elbrw1h7ncogq" class="animable"></rect></g></g><path d="M103.06,167.81c0,2.33-3.11,4.22-7,4.22s-7-1.89-7-4.22V161.1h13.49Z" style="fill: #FF974F; transform-origin: 96.06px 166.565px;" id="elzjj5js0ef2" class="animable"></path><path d="M129.91,167.81c0,2.33-3.11,4.22-7,4.22s-6.95-1.89-6.95-4.22V161.1h13.5Z" style="fill: #FF974F; transform-origin: 122.935px 166.565px;" id="elox7ihytdbu" class="animable"></path><path d="M156.76,167.81c0,2.33-3.11,4.22-6.95,4.22s-6.95-1.89-6.95-4.22V161.1h13.5Z" style="fill: #FF974F; transform-origin: 149.81px 166.565px;" id="elhj9r6nyhfe" class="animable"></path><path d="M183.14,167.81c0,2.33-2.71,4.22-6.55,4.22s-7-1.89-7-4.22V161.1h13.5Z" style="fill: #FF974F; transform-origin: 176.365px 166.565px;" id="el3uylw3m76kq" class="animable"></path><path d="M116.06,161.1v-9.46H102.57v9.55h0v6.62c0,2.33,3.11,4.22,7,4.22s6.55-1.89,6.55-4.22V161.1Z" style="fill: rgb(38, 50, 56); transform-origin: 109.345px 161.835px;" id="el8f279jj5z4" class="animable"></path><g id="elezj5b1y38ou"><path d="M116.06,151.64H102.57v16.17c0,2.33,3.11,4.22,7,4.22s6.55-1.89,6.55-4.22Z" style="fill: rgb(255, 255, 255); opacity: 0.8; transform-origin: 109.345px 161.835px;" class="animable" id="el7dyg25jk46q"></path></g><path d="M143,161.1v-9.46H129.48v9.55h0v6.62c0,2.33,3.11,4.22,6.95,4.22s6.55-1.89,6.55-4.22V161.1Z" style="fill: rgb(38, 50, 56); transform-origin: 136.24px 161.835px;" id="elgrfl32bqlyv" class="animable"></path><g id="elbm2dylufyju"><path d="M143,151.64H129.48v16.17c0,2.33,3.11,4.22,6.95,4.22s6.55-1.89,6.55-4.22Z" style="fill: rgb(255, 255, 255); opacity: 0.8; transform-origin: 136.24px 161.835px;" class="animable" id="eltufda2kblb"></path></g><path d="M169.8,161.1v-9.46H156.31v9.55h0v6.62c0,2.33,3.11,4.22,7,4.22s6.55-1.89,6.55-4.22V161.1Z" style="fill: rgb(38, 50, 56); transform-origin: 163.085px 161.835px;" id="ele6t647gat1" class="animable"></path><g id="ellbhzloyap2s"><path d="M169.8,151.64H156.31v16.17c0,2.33,3.11,4.22,7,4.22s6.55-1.89,6.55-4.22Z" style="fill: rgb(255, 255, 255); opacity: 0.8; transform-origin: 163.085px 161.835px;" class="animable" id="el7w7klvcnlit"></path></g><g id="elf2kqtg9j5k"><rect x="130.71" y="182.11" width="40.29" height="22.86" style="fill: rgb(255, 255, 255); opacity: 0.5; transform-origin: 150.855px 193.54px;" class="animable" id="elhhl676lnaxw"></rect></g><g id="el6j4f90lhkvm"><polygon points="156.51 204.95 149.22 204.95 154.69 182.34 161.99 182.34 156.51 204.95" style="fill: rgb(255, 255, 255); opacity: 0.4; transform-origin: 155.605px 193.645px;" class="animable" id="el5ut312i2ztj"></polygon></g><g id="ellezjqw3cuk8"><polygon points="160.05 204.95 158.43 204.95 163.91 182.34 165.52 182.34 160.05 204.95" style="fill: rgb(255, 255, 255); opacity: 0.4; transform-origin: 161.975px 193.645px;" class="animable" id="el18r3otce7sz"></polygon></g><g id="elskhu2tz8iz"><polygon points="137.58 204.95 136.76 204.95 142.24 182.34 143.06 182.34 137.58 204.95" style="fill: rgb(255, 255, 255); opacity: 0.4; transform-origin: 139.91px 193.645px;" class="animable" id="el0dgyx3p5xm8"></polygon></g><path d="M171.8,205.77H129.91V181.31H171.8Zm-40.29-1.6H170.2V182.91H131.51Z" style="fill: #FF974F; transform-origin: 150.855px 193.54px;" id="eltoxsljewlt" class="animable"></path><rect x="96.67" y="173.75" width="24.22" height="57.49" style="fill: #FF974F; transform-origin: 108.78px 202.495px;" id="el8h6mboah0v" class="animable"></rect><g id="elmmnsvin0ymp"><rect x="97.7" y="174.79" width="22.16" height="56.44" style="fill: rgb(255, 255, 255); opacity: 0.7; transform-origin: 108.78px 203.01px;" class="animable" id="eloxzpyt73gy"></rect></g><g id="elph9k0wysxth"><rect x="99.38" y="182.24" width="8.88" height="20.67" style="opacity: 0.1; transform-origin: 103.82px 192.575px;" class="animable" id="elq3nrjamb4pl"></rect></g><g id="elsm2w2kqujq"><rect x="109.42" y="182.24" width="8.88" height="20.67" style="opacity: 0.1; transform-origin: 113.86px 192.575px;" class="animable" id="eloyhcvqusxkk"></rect></g><g id="ela17ku3skith"><rect x="99.38" y="209.16" width="18.92" height="20.67" style="opacity: 0.1; transform-origin: 108.84px 219.495px;" class="animable" id="ele7hhc786kd9"></rect></g><g id="elpp9qqniryp"><path d="M118.31,181.17H99.38a4.88,4.88,0,0,1,4.88-4.88h9.17a4.88,4.88,0,0,1,4.88,4.88Z" style="opacity: 0.1; transform-origin: 108.845px 178.73px;" class="animable" id="elthi7fr7hrs"></path></g><rect x="99.38" y="203.84" width="1.62" height="4.21" style="fill: #FF974F; transform-origin: 100.19px 205.945px;" id="eleba5x2nu8gl" class="animable"></rect><g id="el8dpt7k54fw"><rect x="99.38" y="203.84" width="1.62" height="4.21" style="fill: rgb(255, 255, 255); opacity: 0.3; transform-origin: 100.19px 205.945px;" class="animable" id="elu4d3blkhm8"></rect></g><g id="el7kbqy8si32p"><rect x="101" y="203.84" width="0.32" height="4.21" style="fill: #FF974F; transform-origin: 101.16px 205.945px; transform: rotate(180deg);" class="animable" id="el2vmfvunuzp"></rect></g><path d="M100.46,205.49a.68.68,0,1,1-.68-.68A.68.68,0,0,1,100.46,205.49Z" style="fill: rgb(38, 50, 56); transform-origin: 99.78px 205.49px;" id="elt1v2inqy31d" class="animable"></path><g id="el5wgzqoa33g8"><rect x="99.98" y="206.67" width="0.35" height="0.85" style="fill: rgb(255, 255, 255); opacity: 0.5; transform-origin: 100.155px 207.095px;" class="animable" id="elps4251smoqf"></rect></g><circle cx="99.18" cy="205.49" r="0.95" style="fill: rgb(38, 50, 56); transform-origin: 99.18px 205.49px;" id="elblj1ge3noeo" class="animable"></circle><g id="eloj1t5a8116r"><circle cx="99.18" cy="205.49" r="0.95" style="fill: rgb(255, 255, 255); opacity: 0.2; transform-origin: 99.18px 205.49px;" class="animable" id="elmpxr05zbph"></circle></g></g><g id="freepik--Box--inject-2" class="animable" style="transform-origin: 353.76px 271.205px;"><polygon points="354.01 248.92 318.38 248.92 325.19 257.86 360.81 257.86 354.01 248.92" style="fill: #FF974F; transform-origin: 339.595px 253.39px;" id="elcpd8ody68j" class="animable"></polygon><g id="elhfdtdkobd3"><polygon points="354.01 248.92 318.38 248.92 325.19 257.86 360.81 257.86 354.01 248.92" style="fill: rgb(255, 255, 255); opacity: 0.3; transform-origin: 339.595px 253.39px;" class="animable" id="elfs6v7yfloi6"></polygon></g><polygon points="367.26 248.92 389.14 248.92 382.7 257.86 360.81 257.86 367.26 248.92" style="fill: #FF974F; transform-origin: 374.975px 253.39px;" id="el3jdr1ij9bdk" class="animable"></polygon><g id="elp1ldg4yli48"><polygon points="367.26 248.92 389.14 248.92 382.7 257.86 360.81 257.86 367.26 248.92" style="fill: rgb(255, 255, 255); opacity: 0.1; transform-origin: 374.975px 253.39px;" class="animable" id="ely56bcjcgpt"></polygon></g><rect x="325.19" y="257.86" width="35.63" height="35.63" style="fill: #FF974F; transform-origin: 343.005px 275.675px;" id="elf7dzot2du4h" class="animable"></rect><g id="el82ajpki11zj"><rect x="325.19" y="257.86" width="35.63" height="35.63" style="fill: rgb(255, 255, 255); opacity: 0.5; transform-origin: 343.005px 275.675px;" class="animable" id="el6d1ljdb6ysx"></rect></g><g id="el49e8vqnxewq"><rect x="339.77" y="257.86" width="6.45" height="8.02" style="opacity: 0.2; transform-origin: 342.995px 261.87px;" class="animable" id="el3guonm5mgbz"></rect></g><g id="el7iyohm77eb6"><rect x="339.77" y="287.05" width="6.45" height="6.44" style="opacity: 0.2; transform-origin: 342.995px 290.27px;" class="animable" id="el0nn9lpedo7fl"></rect></g><rect x="360.81" y="257.86" width="21.88" height="35.63" style="fill: #FF974F; transform-origin: 371.75px 275.675px;" id="ele36vmyvh6qf" class="animable"></rect><g id="elhpz3dsldiz"><rect x="360.81" y="257.86" width="21.88" height="35.63" style="fill: rgb(255, 255, 255); opacity: 0.3; transform-origin: 371.75px 275.675px;" class="animable" id="el48zgf9n1k3s"></rect></g><g id="elj2o0ue2otct"><rect x="365.03" y="283.01" width="6.45" height="9.83" style="fill: rgb(255, 255, 255); opacity: 0.8; transform-origin: 368.255px 287.925px; transform: rotate(90deg);" class="animable" id="elarmuvtx1jm"></rect></g></g><g id="freepik--Character--inject-2" class="animable" style="transform-origin: 261.922px 331.432px;"><path d="M274.32,390.58c8.24.42,12.36.68,20.59,1.33q-2-44.46-5.17-88.84c-.28-3.76-3.92-7-8.12-7.25l-8-.4c-31.19-1.16-62.24-.82-93.4,1q10.45,46.88,19.47,94C224.64,389.48,249.4,389.51,274.32,390.58Z" style="fill: #FF974F; transform-origin: 237.565px 343.328px;" id="elqe2jsp25cls" class="animable"></path><g id="elu5yj5s8k9x"><path d="M274.32,390.58c8.24.42,12.36.68,20.59,1.33q-2-44.46-5.17-88.84c-.28-3.76-3.92-7-8.12-7.25l-8-.4c-31.19-1.16-62.24-.82-93.4,1q10.45,46.88,19.47,94C224.64,389.48,249.4,389.51,274.32,390.58Z" style="fill: rgb(255, 255, 255); opacity: 0.5; transform-origin: 237.565px 343.328px;" class="animable" id="elaym9ndxvkjs"></path></g><path d="M208.91,390.1c-8.24.3-12.36.51-20.6,1q-8.34-43.72-17.74-87.21c-.81-3.68,1.94-6.94,6.15-7.24,3.18-.22,4.78-.33,8-.52,4.21-.26,8.2,2.57,8.9,6.27Q201.8,346.18,208.91,390.1Z" style="fill: #FF974F; transform-origin: 189.669px 343.607px;" id="eljzm8gnrp7lh" class="animable"></path><path d="M220.4,406.53l-3.9-44.62a4.26,4.26,0,0,0-3.7-3.84l-1.61-.21a5.71,5.71,0,0,1-5-5.16l-.71-8.13a5.71,5.71,0,0,1,5.69-6.21h-36a5.71,5.71,0,0,0-5.68,6.21l.71,8.13a5.71,5.71,0,0,0,5,5.16l1.61.21a4.26,4.26,0,0,1,3.7,3.84l3.9,44.62a6.29,6.29,0,0,0,6.27,5.74h36A6.3,6.3,0,0,1,220.4,406.53Z" style="fill: #FF974F; transform-origin: 198.074px 375.315px;" id="el3ajypbwgs5o" class="animable"></path><g id="elxm4qry6nowq"><g style="opacity: 0.2; transform-origin: 198.074px 375.315px;" class="animable" id="elnjhhq26jy5d"><path d="M220.4,406.53l-3.9-44.62a4.26,4.26,0,0,0-3.7-3.84l-1.61-.21a5.71,5.71,0,0,1-5-5.16l-.71-8.13a5.71,5.71,0,0,1,5.69-6.21h-36a5.71,5.71,0,0,0-5.68,6.21l.71,8.13a5.71,5.71,0,0,0,5,5.16l1.61.21a4.26,4.26,0,0,1,3.7,3.84l3.9,44.62a6.29,6.29,0,0,0,6.27,5.74h36A6.3,6.3,0,0,1,220.4,406.53Z" style="fill: rgb(255, 255, 255); transform-origin: 198.074px 375.315px;" id="el06qzgl58kfzx" class="animable"></path></g></g><path d="M319.48,350.75A13.57,13.57,0,0,1,333,338.36H301.65a13.58,13.58,0,0,0-13.52,12.39L285,386.11h31.34Z" style="fill: #FF974F; transform-origin: 309px 362.235px;" id="eldc03rs9nvmd" class="animable"></path><g id="elrwngujmme7r"><path d="M319.48,350.75A13.57,13.57,0,0,1,333,338.36H301.65a13.58,13.58,0,0,0-13.52,12.39L285,386.11h31.34Z" style="fill: rgb(255, 255, 255); opacity: 0.2; transform-origin: 309px 362.235px;" class="animable" id="elrbsua5cgms"></path></g><path d="M312.49,384.46A353.37,353.37,0,0,1,247.13,386a5.66,5.66,0,0,1-5.38-6c.63-5.73.94-8.59,1.57-14.32a5.55,5.55,0,0,1,6-4.88,259.75,259.75,0,0,0,59.7-1.44,5.56,5.56,0,0,1,6.27,4.58l2.25,14.23A5.65,5.65,0,0,1,312.49,384.46Z" style="fill: #FF974F; transform-origin: 279.66px 373.073px;" id="elfutt6dkyfk7" class="animable"></path><path d="M248.93,360.8c-5-.45-7.43-.73-12.36-1.41a5.56,5.56,0,0,0-6.28,4.58L228,378.2a5.65,5.65,0,0,0,5.08,6.26c5.41.74,8.11,1.05,13.54,1.54C247.57,375.92,248,370.88,248.93,360.8Z" style="fill: #FF974F; transform-origin: 238.447px 372.666px;" id="eldc2ai5hdy0p" class="animable"></path><g id="el9ohe9rjfy35"><g style="opacity: 0.4; transform-origin: 279.66px 373.073px;" class="animable" id="elkhyvau4vpfk"><path d="M312.49,384.46A353.37,353.37,0,0,1,247.13,386a5.66,5.66,0,0,1-5.38-6c.63-5.73.94-8.59,1.57-14.32a5.55,5.55,0,0,1,6-4.88,259.75,259.75,0,0,0,59.7-1.44,5.56,5.56,0,0,1,6.27,4.58l2.25,14.23A5.65,5.65,0,0,1,312.49,384.46Z" style="fill: rgb(255, 255, 255); transform-origin: 279.66px 373.073px;" id="el290h0z1a1l3" class="animable"></path></g></g><path d="M346.91,338.36H333a13.57,13.57,0,0,0-13.51,12.39l-3.1,35.36H241.73l-3.09-35.36a13.57,13.57,0,0,0-13.51-12.39H211.21a5.71,5.71,0,0,0-5.69,6.21l.71,8.13a5.71,5.71,0,0,0,5,5.16l1.61.21a4.26,4.26,0,0,1,3.7,3.84l3.9,44.62a6.3,6.3,0,0,0,6.27,5.74H331.44a6.3,6.3,0,0,0,6.28-5.74l3.9-44.62a4.24,4.24,0,0,1,3.7-3.84l1.6-.21a5.7,5.7,0,0,0,5-5.16l.71-8.13A5.7,5.7,0,0,0,346.91,338.36Z" style="fill: #FF974F; transform-origin: 279.075px 375.315px;" id="elmf9fr97qyh" class="animable"></path><g id="el03fhbqp982di"><path d="M346.91,338.36H333a13.57,13.57,0,0,0-13.51,12.39l-3.1,35.36H241.73l-3.09-35.36a13.57,13.57,0,0,0-13.51-12.39H211.21a5.71,5.71,0,0,0-5.69,6.21l.71,8.13a5.71,5.71,0,0,0,5,5.16l1.61.21a4.26,4.26,0,0,1,3.7,3.84l3.9,44.62a6.3,6.3,0,0,0,6.27,5.74H331.44a6.3,6.3,0,0,0,6.28-5.74l3.9-44.62a4.24,4.24,0,0,1,3.7-3.84l1.6-.21a5.7,5.7,0,0,0,5-5.16l.71-8.13A5.7,5.7,0,0,0,346.91,338.36Z" style="fill: rgb(255, 255, 255); opacity: 0.6; transform-origin: 279.075px 375.315px;" class="animable" id="elqjpqs6nbxi"></path></g><polygon points="301.6 393.88 304.95 409.43 310.17 407.63 309.56 392.92 301.6 393.88" style="fill: rgb(255, 195, 189); transform-origin: 305.885px 401.175px;" id="elkd5ch4klmih" class="animable"></polygon><path d="M252.65,328.6a53.52,53.52,0,0,0,14.8-1.93L272.37,337s30.79-5.52,34.71,4c3.35,8.09,3.49,58,3.49,58L302,400s-9.39-36.33-9.35-48.36a1.13,1.13,0,0,0-1.82-.91c-4.73,3.68-17.32,11.64-36.38,10.41-2.95-.19-6.4-.83-5.52-10.46A207.2,207.2,0,0,1,252.65,328.6Z" style="fill: #FF974F; transform-origin: 279.68px 363.335px;" id="eluxzttgcxfrk" class="animable"></path><g id="eltbuyi3cs2f"><path d="M269.71,356c8.45-3.75,20.17-14,25.59-17.8a11.69,11.69,0,0,1,4.21-1.95c-4.7-1-10.72-1-15.9-.59l-12.29,5.43-19.73,8.8-2.44,7c.85,3.75,3.21,4.14,5.33,4.28a56.53,56.53,0,0,0,22.17-2.88C275.67,358.34,261.56,359.61,269.71,356Z" style="opacity: 0.1; transform-origin: 274.33px 348.355px;" class="animable" id="ela7hfub0hmt"></path></g><polygon points="328.58 365.39 339.14 376.06 343.24 372.83 335.1 360.59 328.58 365.39" style="fill: rgb(255, 195, 189); transform-origin: 335.91px 368.325px;" id="ele3rj3gfqx36" class="animable"></polygon><path d="M342.48,371.37,337.72,375a.57.57,0,0,0-.16.68l2.41,5.2a.93.93,0,0,0,1.22.46,1,1,0,0,0,.17-.1c1.95-1.54,3.62-3,6.07-4.87,2.9-2.21,2.43-1.3,5.87-3.86,2.08-1.54.67-4.16-.29-3.61-4.37,2.54-6.41,2.2-9,1.95A2.2,2.2,0,0,0,342.48,371.37Z" style="fill: rgb(38, 50, 56); transform-origin: 345.942px 375.122px;" id="el910qhdwqay6" class="animable"></path><g id="elftck3kc202n"><path d="M255.84,336.13l5.26,1.26s9.84-7.65,5.25-5.12c-3.35,1.86-5-2-5.69-4.19-2.09.29-3.92.42-5.3.48Z" style="opacity: 0.1; transform-origin: 261.465px 332.735px;" class="animable" id="el7nu6jw07ux9"></path></g><path d="M258.1,328c-13.05,2.16-18.81.13-18.81.13s-9.3,33.41,11.21,33.27c9.09-.06,12.86-3.62,18.77-7.09,13.44-7.89,24.54-19.58,29.74-18.82,7.47,1.08,3.24,10,33.71,34.77l6.32-5.56s-26.33-47.29-40.16-47.19c-13.32.09-34.75,16.83-37.57,16.85S258.1,328,258.1,328Z" style="fill: #FF974F; transform-origin: 288.113px 343.885px;" id="elxmkrb45e2ia" class="animable"></path><g id="elpqvq2vrlib"><path d="M303.17,337.39h0a7.13,7.13,0,0,1,3.92,3.58,21.09,21.09,0,0,1,1.06,4.44c.86,1.24,1.88,2.63,3.08,4.15C310.43,339.54,303.17,337.39,303.17,337.39Z" style="opacity: 0.1; transform-origin: 307.2px 343.475px;" class="animable" id="elywfqh3oqxk"></path></g><path d="M310.09,406.23l-6,.36a.55.55,0,0,0-.52.46l-.91,5.67a.91.91,0,0,0,.76,1.06.61.61,0,0,0,.19,0c2.48-.19,4.67-.45,7.76-.63,3.64-.22,2.74.27,7,.08,2.59-.12,2.88-3.08,1.78-3.16-5-.33-6.54-1.76-8.58-3.44A2.23,2.23,0,0,0,310.09,406.23Z" style="fill: rgb(38, 50, 56); transform-origin: 311.701px 410.005px;" id="elo5zsvwl5cq" class="animable"></path><path d="M256.56,283.66c1.69-.65,4.49.47,6.92,4.81s12.77,22.24,9.83,24.54-8.57-4.22-10.64-8.9S253.6,284.81,256.56,283.66Z" style="fill: rgb(38, 50, 56); transform-origin: 264.836px 298.488px;" id="ele7pxah73q7" class="animable"></path><g id="elunjw41g00e"><path d="M261.1,291.92l.36,2.87-.19,6.21c.56,1.25,1.05,2.32,1.4,3.11a24.23,24.23,0,0,0,3.43,5.4c.44-8.75-2.86-17.59-2.86-17.59Z" style="opacity: 0.4; transform-origin: 263.62px 300.715px;" class="animable" id="el8b2yyvvkkln"></path></g><path d="M238.65,328.77s18.07,2.15,29.6-1.64c0,0-3.51-4.42-4-13.27-.45-8.68,3.24-19.1-5.45-29.66a1.65,1.65,0,0,0-1.41-.6c-4.57.32-25.85,2-26.16,5.77C230.87,294.15,240.17,304.35,238.65,328.77Z" style="fill: rgb(38, 50, 56); transform-origin: 249.735px 306.486px;" id="elsnsswkbdon" class="animable"></path><path d="M240.42,273.62s2.37,6.91.53,9.87c0,0,6.65.34,8.27-1.83,0,0-.94-.51-1.24-3.15S245.15,273.14,240.42,273.62Z" style="fill: rgb(255, 195, 189); transform-origin: 244.82px 278.537px;" id="ely1ere3slz8" class="animable"></path><g id="el8xa5mrnk4oi"><path d="M248,278.51c-.27-2.44-2.47-5-6.56-4.94l-.28.25-.29.53s2.51,6.74,7.55,6A7.6,7.6,0,0,1,248,278.51Z" style="isolation: isolate; opacity: 0.2; transform-origin: 244.645px 276.988px;" class="animable" id="elps2ponvhp8"></path></g><path d="M237.92,264.45c.79,6.35,1,9.06,4.41,12.13,5.16,4.63,12.79,2.27,13.92-4.2,1-5.82-.45-15.23-6.85-17.38a8.74,8.74,0,0,0-11.48,9.45Z" style="fill: rgb(255, 195, 189); transform-origin: 247.189px 266.765px;" id="ela5fa97btmbt" class="animable"></path><path d="M252,268.19a14,14,0,0,0,2.06,3.2,2.22,2.22,0,0,1-1.82.47Z" style="fill: rgb(237, 137, 62); transform-origin: 253.03px 270.044px;" id="elr5lp4r56e2" class="animable"></path><path d="M246.37,264.88l-.12-.05a.26.26,0,0,1,0-.36h0a3,3,0,0,1,2.48-1.18.26.26,0,0,1-.05.51,2.46,2.46,0,0,0-2,1A.27.27,0,0,1,246.37,264.88Z" style="fill: rgb(46, 53, 58); transform-origin: 247.549px 264.094px;" id="elq4uuik0bzon" class="animable"></path><path d="M255.8,263.87l-.12-.05a2.48,2.48,0,0,0-2.21-.45.25.25,0,0,1-.33-.14h0a.24.24,0,0,1,.16-.32,3,3,0,0,1,2.69.51.25.25,0,0,1,.06.35.26.26,0,0,1-.25.11Z" style="fill: rgb(46, 53, 58); transform-origin: 254.61px 263.335px;" id="elmvdeptxk1f" class="animable"></path><path d="M248.25,267.56c0,.52.34.92.68.9s.59-.45.55-1-.33-.92-.67-.9S248.22,267,248.25,267.56Z" style="fill: rgb(46, 53, 58); transform-origin: 248.866px 267.51px;" id="el1ig3su9ovtl" class="animable"></path><path d="M254.13,267.19c0,.52.33.92.67.9s.58-.45.55-1-.33-.92-.67-.9S254.09,266.67,254.13,267.19Z" style="fill: rgb(46, 53, 58); transform-origin: 254.739px 267.14px;" id="eldlwfnpxn9s" class="animable"></path><path d="M254.54,266.25l1.22-.43S255.18,266.83,254.54,266.25Z" style="fill: rgb(46, 53, 58); transform-origin: 255.15px 266.125px;" id="el6kjf0cymrj" class="animable"></path><path d="M248.66,266.62l1.23-.44S249.3,267.2,248.66,266.62Z" style="fill: rgb(46, 53, 58); transform-origin: 249.275px 266.489px;" id="el66nnxzb4cgi" class="animable"></path><path d="M248.89,272.77a3.68,3.68,0,0,1-.37-.51.13.13,0,0,1,0-.17h0a.14.14,0,0,1,.17,0,3.35,3.35,0,0,0,2.57,1.62.13.13,0,0,1,0,.25A3.46,3.46,0,0,1,248.89,272.77Z" style="fill: rgb(38, 50, 56); transform-origin: 249.921px 273.011px;" id="el6j8lae8udb6" class="animable"></path><g id="elgn03o4a5kmh"><path d="M240.85,306c-1-4.52-4.43-12.31-4.43-12.31l-2.49-.69-1.22,1.68c2.17,5.4,6,14,6.1,28.2,4.8-.15,10.11-6.92,10.11-6.92l-2.72-6C243.17,311.46,241.82,310.56,240.85,306Z" style="opacity: 0.4; transform-origin: 240.815px 307.94px;" class="animable" id="el7sqnb8lngc6"></path></g><path d="M239.74,269.5s4.12-1.88,1.72-5.41c0,0,4.22.58,4.57-3.54,0,0,3.75,1.89,5.86-1.05,0,0,4,2.27,4.92-.57s-2.2-3.59-2.2-3.59.48-2.8-1.14-3.54a3.45,3.45,0,0,0-3.24.49s-.31-3.34-3-3.21a5.5,5.5,0,0,0-4.14,2.54,5.41,5.41,0,0,0-5-.38c-2.67,1.21-3.11,4.85-3.11,4.85s-3,.61-3.49,2.93.47,3.11.47,3.11-1.62,2.23-1.1,4.29,1.6,2,1.6,2a6.68,6.68,0,0,0,1.12,4.58c1.49,1.79,2.62,1,2.62,1s.49,4,3.23,3.59S239.74,269.5,239.74,269.5Z" style="fill: rgb(38, 50, 56); transform-origin: 243.868px 263.348px;" id="eluqrvpepikie" class="animable"></path><path d="M236.72,269.59a4.67,4.67,0,0,0,2.43,2.62c1.5.68,2.49-.6,2.28-2.14-.18-1.38-1.19-3.41-2.79-3.44a2.13,2.13,0,0,0-2.09,2.15A2.1,2.1,0,0,0,236.72,269.59Z" style="fill: rgb(255, 195, 189); transform-origin: 239.004px 269.513px;" id="ello9g6aggo3" class="animable"></path><path d="M239.74,285.72l1.62-4.74a11.52,11.52,0,0,0,5.37.68c2-.23,1.93-1.13,1.93-1.13l4,3.46-1.71,2.19-3.07-1.41-2.32,2.58Z" style="fill: rgb(38, 50, 56); transform-origin: 246.2px 283.94px;" id="el1xs2gjgbo9s" class="animable"></path><g id="ely2bxn5j32eq"><path d="M239.74,285.72l1.62-4.74a11.52,11.52,0,0,0,5.37.68c2-.23,1.93-1.13,1.93-1.13l4,3.46-1.71,2.19-3.07-1.41-2.32,2.58Z" style="fill: rgb(255, 255, 255); opacity: 0.7; transform-origin: 246.2px 283.94px;" class="animable" id="elnhkctflhdx"></path></g><path d="M261.86,304.43H258a1.14,1.14,0,0,1-1.14-1.45L259,292.86a1.88,1.88,0,0,1,1.75-1.45h3.88a1.14,1.14,0,0,1,1.13,1.45L263.61,303A1.88,1.88,0,0,1,261.86,304.43Z" style="fill: #FF974F; transform-origin: 261.31px 297.92px;" id="elvh650gehs3" class="animable"></path><g id="elthwxtth2rhr"><path d="M261.86,304.43H258a1.14,1.14,0,0,1-1.14-1.45L259,292.86a1.88,1.88,0,0,1,1.75-1.45h3.88a1.14,1.14,0,0,1,1.13,1.45L263.61,303A1.88,1.88,0,0,1,261.86,304.43Z" style="fill: rgb(255, 255, 255); opacity: 0.3; transform-origin: 261.31px 297.92px;" class="animable" id="el9b5ph3nf63d"></path></g><path d="M262.43,304.43h-3.87a1.14,1.14,0,0,1-1.14-1.45l2.15-10.12a1.88,1.88,0,0,1,1.75-1.45h3.88a1.14,1.14,0,0,1,1.13,1.45L264.18,303A1.88,1.88,0,0,1,262.43,304.43Z" style="fill: #FF974F; transform-origin: 261.875px 297.92px;" id="el96b43069ez" class="animable"></path><g id="ellhu25592sl"><path d="M262.43,304.43h-3.87a1.14,1.14,0,0,1-1.14-1.45l2.15-10.12a1.88,1.88,0,0,1,1.75-1.45h3.88a1.14,1.14,0,0,1,1.13,1.45L264.18,303A1.88,1.88,0,0,1,262.43,304.43Z" style="fill: rgb(255, 255, 255); opacity: 0.7; transform-origin: 261.875px 297.92px;" class="animable" id="elmyuqagdhl3"></path></g><path d="M260.89,294.41h.38a1.27,1.27,0,0,0,1.17-1l.08-.38a.76.76,0,0,0-.76-1h-.38a1.27,1.27,0,0,0-1.17,1l-.08.38A.76.76,0,0,0,260.89,294.41Z" style="fill: #FF974F; transform-origin: 261.325px 293.22px;" id="elc2c0l5gm3ue" class="animable"></path><path d="M261.82,292.67a.5.5,0,0,1-.48.4.31.31,0,0,1-.32-.4.53.53,0,0,1,.49-.4A.31.31,0,0,1,261.82,292.67Z" style="fill: rgb(38, 50, 56); transform-origin: 261.42px 292.67px;" id="el3ccbofpgkie" class="animable"></path><path d="M261.58,293.83a.53.53,0,0,1-.49.4.32.32,0,0,1-.32-.4.53.53,0,0,1,.49-.4A.32.32,0,0,1,261.58,293.83Z" style="fill: rgb(38, 50, 56); transform-origin: 261.175px 293.83px;" id="elmhrf83tlh2k" class="animable"></path><path d="M272.68,308.63l-5.43-4.19s-2.12-4.62-3.59-5.2a2,2,0,0,0-2.17.72c-.86,1.06-.95,4.41-.08,5.47s3.52,1.76,3.52,1.76l5.08,5.29Z" style="fill: rgb(255, 195, 189); transform-origin: 266.74px 305.819px;" id="elwtmsaw1my5s" class="animable"></path><path d="M274,313.28c-2.53,2.38-5.07-.54-7.66-3.48a6.27,6.27,0,0,0,3.34-4S277.33,310.16,274,313.28Z" style="fill: rgb(38, 50, 56); transform-origin: 270.59px 309.977px;" id="elzdw6735pkcm" class="animable"></path><g id="elv7rtm1v3u2"><path d="M266.35,309.8l.75.85a7.49,7.49,0,0,0,3.51-4.26c-.54-.37-.92-.58-.92-.58A6.27,6.27,0,0,1,266.35,309.8Z" style="fill: rgb(255, 255, 255); opacity: 0.7; transform-origin: 268.48px 308.23px;" class="animable" id="ell1aamylfqxs"></path></g><path d="M249.22,308.63l5.43-4.19s2.12-4.62,3.59-5.2a2,2,0,0,1,2.17.72c.86,1.06.95,4.41.08,5.47s-3.52,1.76-3.52,1.76l-5.08,5.29Z" style="fill: rgb(255, 195, 189); transform-origin: 255.16px 305.819px;" id="elc9jhav5xron" class="animable"></path><path d="M229.76,303.52c-.87-3.45-1.84-12.09,1.5-14.84s5.26,4.77,6.58,10.56,2,13.55,4.95,12.35a51.94,51.94,0,0,0,7.61-4.66l3.39,4.78s-10.35,11.93-14.9,8.41S230.87,307.89,229.76,303.52Z" style="fill: rgb(38, 50, 56); transform-origin: 241.357px 304.432px;" id="elnr6dgoddxwq" class="animable"></path><g id="eluc8tzwmvnzl"><path d="M249.14,307.83l3.48,5.15c.73-.76,1.17-1.27,1.17-1.27l-3.39-4.78S249.9,307.3,249.14,307.83Z" style="fill: rgb(255, 255, 255); opacity: 0.7; transform-origin: 251.465px 309.955px;" class="animable" id="el3u06rf5kyrk"></path></g></g><defs> <filter id="active" height="200%"> <feMorphology in="SourceAlpha" result="DILATED" operator="dilate" radius="2"></feMorphology> <feFlood flood-color="#32DFEC" flood-opacity="1" result="PINK"></feFlood> <feComposite in="PINK" in2="DILATED" operator="in" result="OUTLINE"></feComposite> <feMerge> <feMergeNode in="OUTLINE"></feMergeNode> <feMergeNode in="SourceGraphic"></feMergeNode> </feMerge> </filter> <filter id="hover" height="200%"> <feMorphology in="SourceAlpha" result="DILATED" operator="dilate" radius="2"></feMorphology> <feFlood flood-color="#ff0000" flood-opacity="0.5" result="PINK"></feFlood> <feComposite in="PINK" in2="DILATED" operator="in" result="OUTLINE"></feComposite> <feMerge> <feMergeNode in="OUTLINE"></feMergeNode> <feMergeNode in="SourceGraphic"></feMergeNode> </feMerge> <feColorMatrix type="matrix" values="0   0   0   0   0                0   1   0   0   0                0   0   0   0   0                0   0   0   1   0 "></feColorMatrix> </filter></defs></svg>